<svg xmlns="http://www.w3.org/2000/svg" data-name="Layer 1" viewBox="0 0 32 32"><rect width="27" height="3" x="2.5" y="28.5" fill="#ee654a" rx="1" ry="1"/><path fill="#ee654a" d="M27.5,28.5H4.5l.36-1L14,1.91a2.123,2.123,0,0,1,4,0L27.14,27.5Z"/><polygon fill="#e0e0e2" points="21.786 12.5 10.214 12.5 12 7.5 20 7.5 21.786 12.5"/><polygon fill="#e0e0e2" points="25.714 23.5 6.286 23.5 8.071 18.5 24.013 18.737 25.714 23.5"/><polygon fill="#ec5633" points="27.5 28.5 4.5 28.5 4.86 27.5 27.14 27.5 27.5 28.5"/><path d="M28.5,28h-.648l-5.6-15.668h0l-.282-.79-3.5-9.8a2.629,2.629,0,0,0-4.951,0l-3.1,8.675-.683,1.912h0L4.148,28H3.5A1.5,1.5,0,0,0,2,29.5v1A1.5,1.5,0,0,0,3.5,32h25A1.5,1.5,0,0,0,30,30.5v-1A1.5,1.5,0,0,0,28.5,28ZM8.422,19.005l15.236.226L25,23H7Zm.355-.995L10.567,13H21.434L23.3,18.226ZM21.076,12H10.924l1.429-4h7.295Zm-6.61-9.919a1.629,1.629,0,0,1,3.068,0L19.291,7H12.709ZM6.638,24H25.362l1.428,4H5.21ZM29,30.5a.5.5,0,0,1-.5.5H3.5a.5.5,0,0,1-.5-.5v-1a.5.5,0,0,1,.5-.5h25a.5.5,0,0,1,.5.5Z"/></svg>