<svg xmlns="http://www.w3.org/2000/svg" width="48" height="48"><path fill-rule="evenodd" d="M24 0A24 24 0 0 0 0 24a24 24 0 0 0 24 24 24 24 0 0 0 24-24A24 24 0 0 0 24 0zm5 11c1.375 0 2.5 1.125 2.5 2.5S30.375 16 29 16a2.47 2.47 0 0 1-.908-.178l-2.205 3.674a3.996 3.996 0 0 1 1.955 2.455l6.172-.822C34.01 21.085 34 21.044 34 21c0-1.099.901-2 2-2s2 .901 2 2-.901 2-2 2a2 2 0 0 1-1.668-.906l-6.338.845c0 .021.006.04.006.061 0 1.2-.544 2.268-1.387 3.002l.375.521-.814.582-.389-.546A3.948 3.948 0 0 1 24 27c-1.204 0-2.273-.548-3.008-1.395l-5.531 3.688c.338.485.539 1.073.539 1.707 0 1.651-1.35 3-3 3s-3-1.349-3-3c0-1.65 1.35-3 3-3 .65 0 1.25.215 1.742.57l5.694-3.795A3.939 3.939 0 0 1 20 23c0-.646.169-1.25.443-1.791l-.543-.408.6-.801.504.379A3.976 3.976 0 0 1 24 19c.326 0 .64.049.943.123l2.307-3.846a2.49 2.49 0 0 1-.75-1.777c0-1.375 1.125-2.5 2.5-2.5zm0 1c-.834 0-1.5.666-1.5 1.5S28.166 15 29 15s1.5-.666 1.5-1.5S29.834 12 29 12zm-13 3c1.099 0 2 .901 2 2 0 .341-.095.657-.248.94l.348.261-.6.799-.428-.32c-.31.2-.677.32-1.072.32-1.099 0-2-.901-2-2s.901-2 2-2zm0 1c-.558 0-1 .442-1 1s.442 1 1 1 1-.442 1-1-.442-1-1-1zm2.9 2.8.8.6-.6.801-.8-.6.6-.8zM24 20c-1.663 0-3 1.337-3 3s1.337 3 3 3 3-1.337 3-3-1.337-3-3-3zm12 0c-.558 0-1 .442-1 1s.442 1 1 1 1-.442 1-1-.442-1-1-1zm-8.43 7.338.58.814-.814.58-.58-.812.814-.582zm1.162 1.627.58.814-.812.58-.582-.812.814-.582zM13 29c-1.11 0-2 .89-2 2 0 1.11.89 2 2 2 1.11 0 2-.89 2-2 0-1.11-.89-2-2-2zm16.895 1.592.58.814-.813.582-.582-.814.815-.582zM32.5 32c1.375 0 2.5 1.125 2.5 2.5S33.875 37 32.5 37a2.508 2.508 0 0 1-2.5-2.5c0-.525.166-1.013.445-1.416l-.203-.283.815-.58.119.168A2.47 2.47 0 0 1 32.5 32zm0 1c-.834 0-1.5.666-1.5 1.5s.666 1.5 1.5 1.5 1.5-.666 1.5-1.5-.666-1.5-1.5-1.5z"/></svg>